<svg width="222" height="222" viewBox="0 0 222 222" fill="none" xmlns="http://www.w3.org/2000/svg">
<g id="game-icons:ship-bow">
<path id="Vector" d="M10.8398 10.8355V23.852H35.4203L48.259 59.4023L10.8398 59.359V79.3477L63.825 79.3043C55.3699 55.9336 46.2645 31.1754 38.8934 10.8398L10.8398 10.8355ZM10.8398 87.1523V194.597C11.178 194.38 11.4989 194.163 11.8458 193.946C17.7123 190.348 24.7105 186.445 31.6177 186.445C38.5465 186.445 43.5762 190.781 47.9555 194.25C52.3348 197.719 55.977 200.32 59.4023 200.32C62.8277 200.32 66.5133 197.719 70.8492 194.25C75.1852 190.781 80.2148 186.489 87.109 186.489C94.0465 186.489 99.0762 190.781 103.455 194.207C107.791 197.675 111.477 200.32 114.902 200.32C115.379 200.32 115.856 200.234 116.377 200.147C120.192 197.068 124.918 192.516 129.861 186.966C138.49 177.296 148.159 164.636 157.221 151.324C166.196 137.97 174.608 124.008 180.679 111.78C185.578 101.938 188.787 93.1359 189.871 87.1523H10.8398ZM83.25 100.16H152.582L152.625 107.965L83.2934 108.008L83.25 100.16ZM114.859 121.84V131.813H124.832L124.875 139.617L114.859 139.661V164.939L115.119 164.809C117.07 163.595 119.195 161.817 121.233 159.866C123.184 157.871 124.962 155.704 126.176 153.752C127.346 151.801 127.867 150.067 127.867 149.633L135.671 149.59C135.628 152.668 134.414 155.27 132.81 157.871C131.205 160.473 129.081 163.031 126.739 165.416C124.355 167.714 121.796 169.839 119.195 171.443C116.593 173.047 114.035 174.305 111 174.305C107.921 174.305 105.363 173.047 102.762 171.443C100.117 169.839 97.5586 167.714 95.2172 165.373C92.8324 162.988 90.7512 160.43 89.1035 157.828C87.4992 155.227 86.2418 152.668 86.2418 149.633L94.0465 149.59C94.0465 150.023 94.5668 151.758 95.7375 153.709C96.9516 155.704 98.7293 157.828 100.724 159.866C102.718 161.817 104.886 163.595 106.881 164.809C106.924 164.852 107.011 164.896 107.054 164.939V139.661H97.0816V131.856H107.054V121.883L114.859 121.84ZM197.198 194.207C194.12 194.293 190.825 196.635 186.792 199.973C182.413 203.529 177.427 208.125 170.402 208.082C163.465 208.082 158.435 203.789 154.056 200.364C149.72 196.895 146.034 194.25 142.652 194.25C139.184 194.25 135.541 196.852 131.205 200.32C126.87 203.789 121.796 208.125 114.902 208.125C108.008 208.125 102.935 203.789 98.5559 200.364C94.2199 196.895 90.5344 194.293 87.1523 194.293C83.6836 194.293 80.0414 196.895 75.7055 200.364C71.3695 203.789 66.3398 208.125 59.4457 208.125C52.5082 208.125 47.4352 203.789 43.0949 200.32C38.7329 196.852 35.0604 194.25 31.622 194.25C28.1966 194.25 21.3415 197.285 15.9302 200.58C11.9542 203.052 9.28758 205.003 7.80469 206.13V214.239L214.152 214.846V206.434C213.241 205.307 211.377 203.312 208.602 200.797C204.83 197.415 199.887 194.423 197.805 194.25C197.632 194.25 197.415 194.207 197.198 194.207Z" fill="#0077B6"/>
</g>
</svg>
