<svg width="273" height="273" viewBox="0 0 273 273" fill="none" xmlns="http://www.w3.org/2000/svg">
<path d="M248.176 226.36C248.721 212.333 252.718 205.894 258.756 196.141L260.211 193.791C271.447 175.512 275.252 161.253 271.515 151.391C268.95 144.603 263.772 142.347 262.339 141.838C255.437 138.864 245.161 137.282 232.607 137.282C227.11 137.282 218.676 137.637 207.85 139.11V112.697H191.258V100.539H154.856L142.229 75.0763C141.733 74.8626 141.215 74.708 140.71 74.517C140.453 72.0742 139.582 69.7364 138.177 67.7216C136.772 65.7069 134.879 64.0808 132.676 62.9952C132.51 58.6314 131.099 54.4062 128.608 50.8191C126.118 47.2319 122.652 44.4328 118.622 42.7525C116.71 37.7359 113.319 33.4184 108.899 30.3719C104.479 27.3254 99.237 25.6936 93.8685 25.6927C91.8588 25.6927 89.8627 25.9291 87.9121 26.3838C85.1605 23.3786 81.8352 20.9546 78.1322 19.2546C74.4292 17.5546 70.4234 16.613 66.3508 16.4852C60.0534 6.41845 48.9226 0.09375 36.9507 0.09375C17.7902 0.09375 2.19895 15.8078 2.19895 35.1229C2.19895 54.4289 17.7856 70.1429 36.9507 70.1429C39.2803 70.1412 41.6036 69.902 43.8847 69.429C46.7064 72.2618 50.0614 74.5075 53.7559 76.0364C57.4505 77.5652 61.4113 78.3469 65.4096 78.3364C70.2462 78.3428 75.014 77.1906 79.314 74.9762C83.5789 77.7953 88.5441 79.3321 93.7185 79.364C96.7098 82.5823 100.583 84.8484 104.854 85.8796L103.026 100.552H85.9387L65.6597 107.509V120.559L53.2149 126.274V149.85H65.4142V159.966L36.9553 174.303V202.221C19.2543 207.268 8.17809 208.809 7.9553 208.836L4.30416 209.318V226.383H0.09375V272.906H268.709V226.378H248.171L248.176 226.36ZM96.533 72.7483C95.6554 72.8665 94.7824 73.0211 93.873 73.0211C88.6002 73.0162 83.5389 70.9466 79.7732 67.2556C75.6145 70.3291 70.5807 71.9895 65.4096 71.9935C61.6469 71.99 57.9366 71.1115 54.5718 69.4275C51.207 67.7435 48.2799 65.3002 46.0217 62.2905C43.1007 63.2855 40.0365 63.7954 36.9507 63.8C21.2322 63.8 8.49638 50.9642 8.49638 35.1229C8.49638 19.277 21.2322 6.43664 36.9507 6.43664C48.3634 6.43664 58.1755 13.216 62.7133 22.9873C67.1708 22.4921 71.6784 23.239 75.7379 25.1456C79.7974 27.0522 83.2506 30.0441 85.716 33.7906C88.2822 32.6422 91.0616 32.0473 93.873 32.0446C103.481 32.0446 111.479 38.7786 113.606 47.8087C117.241 48.6179 120.491 50.6444 122.817 53.5525C125.143 56.4607 126.406 60.0761 126.397 63.8C126.397 65.2459 126.156 66.6191 125.801 67.9559C126.006 67.9422 126.197 67.8968 126.397 67.8968C129.63 67.8968 132.39 69.811 133.704 72.5573C131.294 72.1034 128.849 71.8705 126.397 71.8616C119.968 71.8616 111.479 73.4121 106.068 76.0993L105.64 79.5322C101.891 78.4324 98.6601 76.0256 96.533 72.7483ZM73.544 116.93H203.653V139.746C200.278 140.259 196.915 140.852 193.568 141.524H73.544V116.93ZM142.811 156.856C131.218 161.528 119.898 166.851 108.905 172.798C101.319 176.884 93.5936 180.708 85.7432 184.26V145.753H175.712C169.954 147.319 164.247 149.064 158.598 150.986C158.427 150.684 158.179 150.431 157.88 150.254C157.581 150.077 157.24 149.981 156.893 149.977H144.693C144.426 149.978 144.161 150.032 143.914 150.136C143.667 150.24 143.443 150.391 143.254 150.582C143.066 150.772 142.917 150.998 142.816 151.246C142.715 151.494 142.664 151.76 142.666 152.028V156.124C142.666 156.383 142.72 156.629 142.811 156.856ZM69.4791 174.062C69.4791 172.934 70.3157 171.629 71.3205 171.143L79.8368 167.141C80.8508 166.659 81.6738 167.191 81.6738 168.319V177.608C81.6463 178.201 81.4538 178.773 81.118 179.262C80.7821 179.75 80.3163 180.135 79.7732 180.373L71.3842 183.528C70.3339 183.924 69.4745 183.324 69.4745 182.196L69.4791 174.062ZM55.2473 180.75C55.2473 179.623 56.084 178.309 57.0934 177.831L63.5772 174.785C64.5866 174.307 65.4142 174.839 65.4142 175.967V183.724C65.3872 184.316 65.1949 184.889 64.859 185.378C64.5231 185.866 64.057 186.251 63.5136 186.488L57.1616 188.88C56.1158 189.271 55.2519 188.671 55.2519 187.543L55.2473 180.75ZM41.0156 187.434C41.0156 186.306 41.8522 185.002 42.8617 184.524L49.3455 181.473C50.3549 180.996 51.1824 181.528 51.1824 182.655V189.085C51.155 189.677 50.9625 190.25 50.6266 190.738C50.2907 191.227 49.8249 191.611 49.2818 191.849L42.9299 194.236C41.8841 194.627 41.0202 194.032 41.0202 192.904V187.434H41.0156ZM12.6931 216.643C24.7605 214.561 64.8458 206.176 112.865 180.255C170.529 149.108 215.816 145.748 232.612 145.748C243.961 145.748 253.391 147.144 259.166 149.677L259.652 149.85C259.675 149.859 262.335 150.85 263.676 154.401C264.113 155.547 264.467 157.184 264.485 159.375C262.108 157.331 259.423 155.675 256.528 154.469C231.348 147.362 173.771 152.528 109.928 187.007C64.2683 211.66 25.1925 217.507 12.6931 218.812V216.643ZM239.187 246.23C224.691 249.112 165.227 260.211 110.71 260.211C81.6374 260.211 58.4802 257.088 41.8659 250.936C35.473 248.567 25.5699 243.934 12.6931 231.002V222.913C25.3653 221.618 65.355 215.725 111.842 190.621C173.766 157.184 230.907 151.746 255.042 158.284C257.606 159.325 261.266 161.308 263.958 164.577C262.876 170.261 259.889 178.254 253.068 189.339L251.641 191.663C245.37 201.77 240.419 209.759 239.791 225.973C239.436 232.72 239.235 239.474 239.187 246.23Z" fill="#0077B6"/>
</svg>
