<svg width="240" height="240" viewBox="0 0 240 240" fill="none" xmlns="http://www.w3.org/2000/svg">
<g id="Group">
<path id="Vector" d="M120 208.8C169.043 208.8 208.8 169.043 208.8 120C208.8 70.9571 169.043 31.2 120 31.2C70.9571 31.2 31.2 70.9571 31.2 120C31.2 169.043 70.9571 208.8 120 208.8Z" stroke="#0077B6" stroke-width="18" stroke-linecap="round" stroke-linejoin="round"/>
<path id="Vector_2" d="M120 9V92.25M197.7 42.3L139.647 100.353M231 120H147.75M197.7 197.7L139.647 139.647M120 147.75V231M100.353 139.647L42.3 197.7M92.25 120H9M100.353 100.353L42.3 42.3" stroke="#0077B6" stroke-width="18" stroke-linecap="round" stroke-linejoin="round"/>
<path id="Vector_3" d="M120 147.75C135.326 147.75 147.75 135.326 147.75 120C147.75 104.674 135.326 92.25 120 92.25C104.674 92.25 92.25 104.674 92.25 120C92.25 135.326 104.674 147.75 120 147.75Z" stroke="#0077B6" stroke-width="18" stroke-linecap="round" stroke-linejoin="round"/>
</g>
</svg>
